<svg xmlns="http://www.w3.org/2000/svg" height="32" viewBox="0 0 206 32"><defs><clipPath id="prefix__clip-path"><path class="prefix__cls-1" d="M43 0h55v27H43z"/></clipPath><style>.prefix__cls-1{fill:none}.prefix__cls-3{fill:#fffffe}</style></defs><g id="prefix__Camada_2" data-name="Camada 2"><g id="prefix__Camada_1-2" data-name="Camada 1"><g id="prefix__extra-horizontal-branco-2"><g id="prefix__Group_4-3" data-name="Group 4-3"><path id="prefix__Clip_2-4" data-name="Clip 2-4" class="prefix__cls-1" d="M43 0h55v27H43z"/><g clip-path="url(#prefix__clip-path)"><g id="prefix__Group_4-4" data-name="Group 4-4"><path id="prefix__Fill_1-2" data-name="Fill 1-2" class="prefix__cls-3" d="M61.763 27.1a6.42 6.42 0 01-.929-.067H50.24a6.5 6.5 0 01-5.3-2.594 8.305 8.305 0 01-1.354-2.589c-.886-5.408-.6-8.79-.206-10.675a6.885 6.885 0 011.078-2.823 4.373 4.373 0 011.711-1.624C48.391 5.386 51.516 5.1 53.746 5.1c.407 0 .83.009 1.257.027h.02c.416 0 4.135.072 6.432 2.561a7.526 7.526 0 011.725 5.955 6.615 6.615 0 01-.454 2 3.721 3.721 0 01-2.771 2.426l-10.2.125V20.9a3.332 3.332 0 002.462 2.668h6.738a11.564 11.564 0 005.09-1.923A5.121 5.121 0 0065.4 20.31l4.1-4.763-6.915-10.125h6.769c.015 0 1.5.19 4.225 5.253l.012-.019c.6-.84 3.66-5.041 4.924-5.262h5.754L76.5 14.841 85 26.94h-6.778c-.266 0-1.663-.153-3.087-3.175-.012-.02-1.308-2.107-2.642-4.2a.02.02 0 01-.007.012 25.373 25.373 0 01-3.2 3.756 16.687 16.687 0 01-3.418 2.591 8.518 8.518 0 01-4.105 1.176zm-8.553-18a3.767 3.767 0 00-2.748.826 1.5 1.5 0 00-.462.829l.035 3.345h6c.988-.162.969-1.436.968-1.449l-.043-1.646c-.03-1.687-2.013-1.762-2.033-1.762A11.484 11.484 0 0053.21 9.1z"/><path id="prefix__Fill_3-2" data-name="Fill 3-2" class="prefix__cls-3" d="M91.672 0S85.953 1.348 85 4.375v15.606s.215 6.4 6.607 6.848c0 0 5.514.708 6.206-.756v-3.185s-3.224.628-4.938-.275a2.2 2.2 0 01-1.122-1.841V9.608h5.43A1.55 1.55 0 0098 8.59V5.671h-6.3L91.672 0"/></g></g></g><path id="prefix__Fill_5-2" data-name="Fill 5-2" class="prefix__cls-3" d="M99 26.345s.53.6.929.655h4.159a1.3 1.3 0 001.1-1.022V11.83s-.13-1.467 2.056-2.009H111V7.149s-.224-1.077-2.352-1.034c0 0-9.2-1.506-9.6 6.37L99 26.345"/><path id="prefix__Fill_6-2" data-name="Fill 6-2" class="prefix__cls-3" d="M131 27.1l-13.433-.037a8.494 8.494 0 01-4.811-1.771A3.558 3.558 0 01111.7 23.9c-1.3-2.7-.384-7.3-.374-7.344 1.133-3.627 5.331-3.732 5.806-3.732h.032l7.6-.148a3.185 3.185 0 00-2.417-3.621c-.569-.055-1.357-.081-2.341-.081-2.726 0-6.142.215-6.177.218l-.007-2.853c0-.012.225-1.158 3.414-1.158.163 0 .332 0 .5.009l5.564-.09a7.362 7.362 0 015.436 2.146A9.762 9.762 0 01131 13.557zm-8.443-11a29.854 29.854 0 00-3.409.144 2.372 2.372 0 00-2.074 1.693 21.714 21.714 0 00.021 3.478c.242 1.567 2.322 1.685 2.953 1.685h4.877l.075-6.956c-.015 0-1.14-.044-2.444-.044z"/><path id="prefix__Fill_7-2" data-name="Fill 7-2" class="prefix__cls-3" d="M147.084 13.384l.916-2.042s-.954-1.742-3.945-1.256c0 0-4.49.41-4.02 7.721 0 0 .263 6.263 5.931 5.033 0 0 1.479-.363 1.764-1.044l-.684-2.107a3.232 3.232 0 01-2.346.911 2.341 2.341 0 01-1.734-2.054s-.244-4.467.274-5.106c0 0 .991-2.343 3.844-.056"/><path id="prefix__Fill_8-2" data-name="Fill 8-2" class="prefix__cls-3" d="M154.914 22.1a4.52 4.52 0 01-3.933-1.982 5.343 5.343 0 01-.8-1.986c-.445-2.8-.093-4.94 1.045-6.348a4.4 4.4 0 012.91-1.6 2.481 2.481 0 01.67-.083 8.473 8.473 0 012.006.326 5.594 5.594 0 013.129 4.56 8.818 8.818 0 01-.158 2.951c-.912 4.078-3.962 4.125-4.091 4.125h-.006a7.363 7.363 0 01-.772.037zm-.176-9.94c-.706 0-1.579.658-1.719 2.511a19.074 19.074 0 00.344 4.338 2.743 2.743 0 001.773 1.1c.641 0 1.2-.482 1.655-1.433a19.893 19.893 0 00.109-4.536c0-.02-.151-2.04-1.668-2.04a2.061 2.061 0 00-.469.057z"/><path id="prefix__Fill_9-2" data-name="Fill 9-2" class="prefix__cls-3" d="M162 10.912s.926.99.563 11.03h2.9v-8.6s2.331-2.231 2.937.185V21.9h2.758v-8.333s2.115-2.371 2.985-.283V22H177v-9.661s-1.245-4.747-6.021-.715c0 0-1.792-3.5-5.886-.054l-.559-1.553-2.534.9"/><path id="prefix__Fill_10-2" data-name="Fill 10-2" class="prefix__cls-3" d="M191.627 22.1a3.915 3.915 0 01-2.334-.842l-.6.752-2.693-.439.551-1.707V6.689l2.879-.589.04 5.519a5.731 5.731 0 012.413-.958 3.957 3.957 0 013.009 1.359c1.437 1.728 1.063 4.528 1.06 4.556a5.633 5.633 0 01-1.2 3.854 4.125 4.125 0 01-3.125 1.67zm-.793-9a3.672 3.672 0 00-1.834.6v5.97a1.575 1.575 0 001.147.434 3.4 3.4 0 001.929-.75 3.236 3.236 0 00.824-2.222 4.828 4.828 0 00-.4-3.121 1.922 1.922 0 00-1.666-.911z"/><path id="prefix__Fill_11-2" data-name="Fill 11-2" class="prefix__cls-3" d="M198.613 12.979V22h3.151v-8.071a2.728 2.728 0 013.2-1.1L206 10.3a3.583 3.583 0 00-4.545 1.476l-.905-1.767-2.55.859a17.571 17.571 0 01.613 2.111"/><path id="prefix__Fill_12-2" data-name="Fill 12-2" class="prefix__cls-3" d="M182 18a1.944 1.944 0 00-2 1.889v.055a2.055 2.055 0 001.915 2.05 1.9 1.9 0 002.078-1.7 1.94 1.94 0 00.007-.275A2.008 2.008 0 00182 18"/><path id="prefix__Fill_13-2" data-name="Fill 13-2" class="prefix__cls-3" d="M135.449 18s-2.4-.045-2.449 2.128a2.176 2.176 0 002.451 1.861h.036s2.4 0 2.5-1.857c0 0 .386-2-2.534-2.128"/><path id="prefix__Fill_14-2" data-name="Fill 14-2" class="prefix__cls-3" d="M21.893 20.589C30.268 17.3 39.207 12.1 44 4H5.064A5.027 5.027 0 000 8.984V32a11.086 11.086 0 013.713-4.082 38.191 38.191 0 017.629-3.588c3.871-1.443 8.04-2.756 10.551-3.741"/><path id="prefix__Fill_15-2" data-name="Fill 15-2" d="M2 9.051A3.06 3.06 0 015.066 6H31c-2.4 2.178-7.258 4.666-10.864 6.2-4.336 1.86-7.316 2.57-12.51 4.56C5.136 17.715 2.5 19.055 2 21V9.051" fill="#c11926"/><path id="prefix__Fill_16-2" data-name="Fill 16-2" d="M33.665 6H40c-4.229 5.515-10.683 9.456-17.344 12.277-7.12 3.014-14.267 4.654-18.252 7.24A5.956 5.956 0 002 28v-4.286c0-1.314 1.805-2.892 3.4-3.686 3.875-1.922 8.617-3.075 15.351-5.982C25.022 12.2 30.46 9.283 33.665 6" fill="#007ac3"/></g></g></g></svg>
